# xmcd CD database file
#
# Track frame offsets:
#	150
#	21906
#	39154
#	67215
#	83423
#	110722
#	124209
#	138364
#	156212
#	173501
#	193237
#	204931
#	231922
#	248026
#	272760
#	274464
#	289798
#	315533
#	342060
#
# Disc length: 4787 seconds
#
# Revision: 1
# Processed by: cddbd v1.5.2PL0 Copyright (c) Steve Scherf et al.
# Submitted via: CDex 1.70beta2
#
DISCID=1512b113
DTITLE=Omega - El real
DYEAR=2017
DGENRE=Merengue
TTITLE0=Omega - Melina
TTITLE1=Omega - la avenida
TTITLE2=Omega -  la silla
TTITLE3=Omega -  mi unica verdad
TTITLE4=Omega -  endo en la versace
TTITLE5=Omega -  El producto
TTITLE6=Omega -  Tu marea
TTITLE7=Omega -  un trio de gente
TTITLE8=Omega -  Burbujas de amor
TTITLE9=Omega -  Dicen en la calle
TTITLE10=Omega -  Hoy voy a beber
TTITLE11=Omega -  La venda
TTITLE12=Omega -  Me cago
TTITLE13=Omega - Mi flow versace
TTITLE14=Omega -  Yo vivire
TTITLE15=Omega -  El fuerte
TTITLE16=Omega -  Escudo de dios
TTITLE17=Omega -  Me tienen para
TTITLE18=Omega -  Vengo de atras
EXTD=YEAR: 2017
EXTT0=
EXTT1=
EXTT2=
EXTT3=
EXTT4=
EXTT5=
EXTT6=
EXTT7=
EXTT8=
EXTT9=
EXTT10=
EXTT11=
EXTT12=
EXTT13=
EXTT14=
EXTT15=
EXTT16=
EXTT17=
EXTT18=
PLAYORDER=
